<?xml version="1.0" encoding="utf-8"?>
<!-- Generator: Adobe Illustrator 28.0.0, SVG Export Plug-In . SVG Version: 6.00 Build 0)  -->
<svg version="1.1" id="Calque_1" xmlns="http://www.w3.org/2000/svg" xmlns:xlink="http://www.w3.org/1999/xlink" x="0px" y="0px"
	 viewBox="0 0 1958 836" style="enable-background:new 0 0 1958 836;" xml:space="preserve">
<style type="text/css">
	.st0{opacity:0.5;}
	.st1{opacity:0.5;fill:url(#SVGID_1_);enable-background:new    ;}
	.st2{fill:url(#SVGID_00000008835102514791009910000004414866610776432822_);}
	.st3{fill:#FFFFFF;}
	.st4{opacity:0.9;fill:none;stroke:#9C9B9B;stroke-linecap:round;stroke-miterlimit:10;enable-background:new    ;}
	.st5{opacity:0.9;fill:#9C9B9B;enable-background:new    ;}
	.st6{fill:#00AA95;}
	.st7{fill:#00B0EA;}
</style>
<g class="st0">
	
		<linearGradient id="SVGID_1_" gradientUnits="userSpaceOnUse" x1="718.493" y1="346.2018" x2="718.493" y2="292.4768" gradientTransform="matrix(1 0 0 -1 0 835.8898)">
		<stop  offset="0" style="stop-color:#FFFFFF"/>
		<stop  offset="0.14" style="stop-color:#FBFDFE"/>
		<stop  offset="0.28" style="stop-color:#EEF8FC"/>
		<stop  offset="0.42" style="stop-color:#DAEFF9"/>
		<stop  offset="0.56" style="stop-color:#BDE2F5"/>
		<stop  offset="0.71" style="stop-color:#97D2EF"/>
		<stop  offset="0.86" style="stop-color:#6ABFE8"/>
		<stop  offset="1" style="stop-color:#35A8E0"/>
	</linearGradient>
	<path class="st1" d="M718.5,543.4c92.3,0,167.1-12,167.1-26.9c0-14.8-74.8-26.9-167.1-26.9c-92.3,0-167.1,12-167.1,26.9
		C551.4,531.4,626.2,543.4,718.5,543.4z"/>
</g>
<linearGradient id="SVGID_00000048500588144770738650000010541665306783027645_" gradientUnits="userSpaceOnUse" x1="718.4945" y1="319.1699" x2="718.4945" y2="625.3768" gradientTransform="matrix(1 0 0 -1 0 835.8898)">
	<stop  offset="0" style="stop-color:#00AA95"/>
	<stop  offset="1" style="stop-color:#00B0EA"/>
</linearGradient>
<path style="fill:url(#SVGID_00000048500588144770738650000010541665306783027645_);" d="M828.1,320.2c0-14.4-2.8-28.7-8.3-42
	c-5.5-13.3-13.6-25.4-23.8-35.6c-10.2-10.2-22.3-18.3-35.6-23.8c-13.3-5.5-27.5-8.3-41.9-8.3c-14.4,0-28.6,2.8-41.9,8.3
	c-13.3,5.5-25.4,13.6-35.6,23.8c-10.2,10.2-18.2,22.3-23.8,35.6c-5.5,13.3-8.3,27.6-8.3,42c0,60.5,101.6,196.6,109.6,196.6
	S828.1,380.7,828.1,320.2z"/>
<path class="st3" d="M718.5,254.9c-12.9,0-25.5,3.8-36.2,11c-10.7,7.2-19.1,17.4-24,29.3c-4.9,11.9-6.2,25-3.7,37.7
	c2.5,12.6,8.7,24.3,17.8,33.4s20.7,15.3,33.4,17.8s25.7,1.2,37.6-3.7c11.9-4.9,22.1-13.3,29.2-24c7.2-10.7,11-23.3,11-36.2
	c0-8.6-1.7-17.1-5-25c-3.3-7.9-8.1-15.1-14.1-21.2c-6.1-6.1-13.2-10.9-21.2-14.1C735.5,256.6,727.1,254.9,718.5,254.9z"/>
<path class="st4" d="M919.8,341.4h346.6"/>
<path class="st5" d="M1259.7,526.5h-183.3c-3.7,0-6.8,3-6.8,6.8v3.3c0,3.7,3,6.8,6.8,6.8h183.3c3.8,0,6.8-3,6.8-6.8v-3.3
	C1266.5,529.5,1263.5,526.5,1259.7,526.5z"/>
<path class="st6" d="M1045.6,368.1H1035c-0.5,0-1,0.2-1.4,0.6c-0.4,0.4-0.6,0.9-0.6,1.4v23.6c0,0.2,0.1,0.5,0.2,0.7
	c0.1,0.2,0.3,0.4,0.6,0.5h0.5c0.3,0,0.6-0.1,0.8-0.3l11.9-12c0.2-0.2,0.3-0.4,0.4-0.7c0.1-0.2,0.2-0.5,0.2-0.8v-10.9
	c0-0.3,0-0.5-0.1-0.8c-0.1-0.2-0.2-0.5-0.4-0.7c-0.2-0.2-0.4-0.3-0.7-0.4S1045.8,368.1,1045.6,368.1z M964.6,368.1h-44
	c-0.2,0-0.4,0.1-0.6,0.2c-0.2,0.2-0.2,0.4-0.2,0.6v132c0,0.2,0.1,0.4,0.2,0.6c0.2,0.2,0.4,0.2,0.6,0.2h44c6.1,0.3,12.2-0.7,17.9-2.8
	c5.7-2.1,11-5.3,15.5-9.4c13.5-13.5,13-38.4,13-56.5c0-18,0.5-39.2-13-52.7c-4.5-4.1-9.7-7.3-15.4-9.4
	C976.8,368.8,970.7,367.9,964.6,368.1z M990.9,482.5c-3.8,3.6-8.4,6.4-13.3,8.1c-4.9,1.8-10.2,2.5-15.4,2.2h-31.5
	c-0.2,0-0.4-0.1-0.6-0.2c-0.2-0.2-0.2-0.4-0.2-0.6V377.9c0-0.2,0.1-0.4,0.2-0.6c0.2-0.2,0.4-0.2,0.6-0.2h31.5
	c5.2-0.3,10.5,0.4,15.4,2.2c4.9,1.8,9.5,4.5,13.3,8.1c10.7,10.9,9.8,30.6,9.8,45.6c0,15,0.8,38.5-9.8,49.4V482.5z"/>
<path class="st6" d="M1159.5,395.4c10.2,0,17.4,6.4,19.8,17.4c0.5,2.2,1.7,4.2,3.4,5.6c1.8,1.4,3.9,2.2,6.2,2.2h8.5
	c1.4,0,2.9-0.3,4.2-0.9c1.3-0.6,2.5-1.5,3.4-2.6c0.9-1.1,1.6-2.4,2-3.8c0.4-1.4,0.4-2.8,0.2-4.3c-4.2-24.8-23.2-40.8-47.7-40.8
	c-6.5,0-12.9,1.2-18.9,3.7c-6,2.5-11.4,6.1-16,10.7c-13.2,13.3-13.2,26.4-13.2,52.5c0,26.1,0,39.1,13.2,52.4c4.6,4.6,10,8.2,16,10.7
	c6,2.5,12.4,3.7,18.9,3.7c24.6,0,43.3-16,47.7-40.8c0.3-1.4,0.2-2.9-0.2-4.3s-1-2.7-2-3.8c-0.9-1.1-2.1-2-3.4-2.6
	c-1.3-0.6-2.7-0.9-4.2-0.9h-8.5c-2.2,0-4.4,0.8-6.2,2.2c-1.8,1.4-3,3.4-3.4,5.6c-2.4,11.1-9.7,17.4-20.1,17.4c-5.2,0-10.2-2-14-5.6
	c-4.9-4.9-5.8-10-5.8-33.9c0-23.9,0.8-28.9,5.8-33.9c1.9-1.8,4.1-3.3,6.6-4.3C1154.3,395.8,1156.9,395.3,1159.5,395.4z"/>
<path class="st6" d="M1084.3,368.1h-9.7c-2.8,0-5,2.3-5,5v123.5c0,2.8,2.3,5,5,5h9.7c2.8,0,5-2.3,5-5V373.2
	C1089.3,370.4,1087.1,368.1,1084.3,368.1z"/>
<path class="st6" d="M1251.9,368.1h-7.9c-8,0-14.6,6.5-14.6,14.6v104.4c0,8.1,6.5,14.6,14.6,14.6h7.9c8,0,14.6-6.5,14.6-14.6V382.7
	C1266.5,374.7,1260,368.1,1251.9,368.1z"/>
<path class="st7" d="M1019.3,252h-4c-1.3,0-2.6,0.5-3.6,1.5c-1,1-1.5,2.2-1.5,3.6v28.5l-20.8-31.3c-0.5-0.7-1.1-1.3-1.8-1.7
	s-1.6-0.6-2.4-0.6h-4c-1.3,0-2.6,0.5-3.6,1.5c-1,1-1.5,2.2-1.5,3.6v52.4c0,1.3,0.5,2.6,1.5,3.6c1,1,2.2,1.5,3.6,1.5h4
	c1.3,0,2.6-0.5,3.6-1.5c1-1,1.5-2.2,1.5-3.6v-28.6l20.8,31.3c0.5,0.7,1.1,1.3,1.8,1.7s1.6,0.6,2.4,0.6h4c1.3,0,2.6-0.5,3.6-1.5
	c1-1,1.5-2.2,1.5-3.6V257c0-1.3-0.5-2.6-1.5-3.6C1021.9,252.5,1020.6,252,1019.3,252z"/>
<path class="st7" d="M1019.3,252h-4c-1.3,0-2.6,0.5-3.6,1.5c-1,1-1.5,2.2-1.5,3.6v28.5l-20.8-31.3c-0.5-0.7-1.1-1.3-1.8-1.7
	s-1.6-0.6-2.4-0.6h-4c-1.3,0-2.6,0.5-3.6,1.5c-1,1-1.5,2.2-1.5,3.6v52.4c0,1.3,0.5,2.6,1.5,3.6c1,1,2.2,1.5,3.6,1.5h4
	c1.3,0,2.6-0.5,3.6-1.5c1-1,1.5-2.2,1.5-3.6v-28.6l20.8,31.3c0.5,0.7,1.1,1.3,1.8,1.7s1.6,0.6,2.4,0.6h4c1.3,0,2.6-0.5,3.6-1.5
	c1-1,1.5-2.2,1.5-3.6V257c0-1.3-0.5-2.6-1.5-3.6C1021.9,252.5,1020.6,252,1019.3,252z"/>
<path class="st7" d="M1074.8,252h-33.9c-0.9,0-1.8,0.4-2.4,1c-0.6,0.6-1,1.5-1,2.4v55.8c0,0.9,0.3,1.8,1,2.4c0.6,0.6,1.5,1,2.4,1
	h33.9c0.9,0,1.8-0.4,2.4-1c0.6-0.6,1-1.5,1-2.4v-3.8c0-0.9-0.4-1.8-1-2.4c-0.6-0.6-1.5-1-2.4-1h-26.2v-15.7h21.8
	c0.9,0,1.8-0.4,2.4-1c0.6-0.6,1-1.5,1-2.4v-3.7c0-0.9-0.4-1.8-1-2.4c-0.6-0.6-1.5-1-2.4-1h-21.8v-15.2h26.2c0.9,0,1.8-0.4,2.4-1
	c0.6-0.6,1-1.5,1-2.4v-3.8c0-0.4-0.1-0.9-0.2-1.3c-0.2-0.4-0.4-0.8-0.7-1.1c-0.3-0.3-0.7-0.6-1.1-0.7
	C1075.7,252.1,1075.2,252,1074.8,252z"/>
<path class="st7" d="M1135.6,309.6l-11.5-22c3.4-1.3,6.4-3.7,8.4-6.8c2-3.1,3-6.7,2.9-10.4c0.1-2.5-0.4-5-1.3-7.3
	c-1-2.3-2.4-4.4-4.2-6.2c-1.8-1.7-4-3.1-6.4-3.9c-2.4-0.8-4.9-1.2-7.4-0.9h-21.2c-0.9,0-1.8,0.4-2.4,1c-0.6,0.6-1,1.5-1,2.4v55.7
	c0,0.9,0.4,1.8,1,2.4c0.6,0.6,1.5,1,2.4,1h4.2c0.9,0,1.8-0.4,2.4-1c0.6-0.6,1-1.5,1-2.4v-22.3h9.9l12.4,23.9c0.3,0.5,0.7,1,1.2,1.3
	c0.5,0.3,1.1,0.5,1.8,0.5h4.9c0.6,0,1.2-0.1,1.7-0.4c0.5-0.3,0.9-0.7,1.2-1.2c0.3-0.5,0.5-1.1,0.5-1.6
	C1136,310.7,1135.9,310.1,1135.6,309.6z M1115.5,278.2h-13.2v-15.6h13c5.9,0,8.9,2.6,8.9,7.9
	C1124.3,275.7,1121.4,278.2,1115.5,278.2z"/>
<path class="st7" d="M1190.7,280.2h-19.5c-0.7,0-1.3,0.3-1.8,0.7s-0.7,1.1-0.7,1.8v3.8c0,0.7,0.3,1.3,0.7,1.8s1.1,0.7,1.8,0.7h12.7
	v2.6c0.3,3.4-0.7,6.9-2.8,9.6c-1.2,1.3-2.6,2.4-4.2,3.1c-1.6,0.8-3.3,1.2-5,1.3c-1.8,0.1-3.5-0.2-5.1-0.8c-1.6-0.6-3.2-1.5-4.4-2.7
	c-3.3-3.3-3.7-6.7-3.7-18.8c0-12.1,0.3-15.5,3.7-18.9c1.7-1.7,3.8-2.8,6-3.4c2.3-0.5,4.7-0.4,6.9,0.3c2.2,0.7,4.2,2.1,5.7,3.9
	c1.5,1.8,2.5,4,2.9,6.3c0.1,0.5,0.4,1,0.9,1.4c0.4,0.4,1,0.5,1.5,0.6h4.2c0.4,0,0.7-0.1,1-0.2c0.3-0.2,0.6-0.4,0.9-0.7
	c0.2-0.3,0.4-0.6,0.5-1c0.1-0.4,0.1-0.7,0.1-1.1c-0.8-5.2-3.4-10-7.4-13.4c-4-3.4-9.1-5.3-14.4-5.2c-2.9,0-5.9,0.5-8.6,1.7
	c-2.7,1.1-5.2,2.8-7.3,4.9c-6,6-6,11.9-6,24.7c0,12.9,0,18.8,6,24.7c2.2,2.1,4.7,3.8,7.6,4.9c2.8,1.1,5.9,1.7,8.9,1.6
	c3-0.1,6-0.8,8.8-2c2.8-1.3,5.3-3.1,7.3-5.3c1.8-2.1,3.3-4.5,4.2-7.1c0.9-2.6,1.3-5.4,1.1-8.2v-9.4c-0.1-0.6-0.3-1.2-0.8-1.6
	C1191.8,280.4,1191.3,280.2,1190.7,280.2z"/>
<path class="st7" d="M1213.7,252h-4.5c-0.9,0-1.7,0.8-1.7,1.7v59.1c0,1,0.8,1.7,1.7,1.7h4.5c1,0,1.7-0.8,1.7-1.7v-59.1
	C1215.4,252.8,1214.6,252,1213.7,252z"/>
<path class="st7" d="M1230.2,314.5h34.6c0.4,0,0.9-0.2,1.2-0.5c0.3-0.3,0.5-0.7,0.5-1.2v-0.8c0-0.4-0.2-0.9-0.5-1.2
	c-0.3-0.3-0.7-0.5-1.2-0.5H1235c-0.4,0-0.9-0.2-1.2-0.5c-0.3-0.3-0.5-0.7-0.5-1.2v-22.1c0-0.4,0.2-0.9,0.5-1.2
	c0.3-0.3,0.7-0.5,1.2-0.5h25c0.4,0,0.8-0.2,1.2-0.5c0.3-0.3,0.5-0.7,0.5-1.2v-0.9c0-0.4-0.2-0.9-0.5-1.2c-0.3-0.3-0.7-0.5-1.2-0.5
	h-25c-0.4,0-0.9-0.2-1.2-0.5c-0.3-0.3-0.5-0.7-0.5-1.2V258c0-0.4,0.2-0.9,0.5-1.2c0.3-0.3,0.7-0.5,1.2-0.5h29.9
	c0.4,0,0.9-0.2,1.2-0.5c0.3-0.3,0.5-0.7,0.5-1.2v-1c0-0.4-0.2-0.9-0.5-1.2c-0.3-0.3-0.7-0.5-1.2-0.5h-34.6c-0.4,0-0.9,0.2-1.2,0.5
	c-0.3,0.3-0.5,0.7-0.5,1.2V313c0,0.4,0.2,0.8,0.5,1.1C1229.4,314.4,1229.8,314.5,1230.2,314.5z"/>
<path class="st7" d="M956.3,252h-29.6c-1.8,0-3.6,0.7-4.9,2s-2,3-2,4.9v49c0,1.8,0.7,3.6,2,4.9c1.3,1.3,3,2,4.9,2h29.6
	c1.8,0,3.6-0.7,4.9-2c1.3-1.3,2-3,2-4.9v-3.3c0-1.8-0.7-3.6-2-4.9c-1.3-1.3-3-2-4.9-2h-19.1v-6.1h15.2c1.8,0,3.6-0.7,4.9-2
	c1.3-1.3,2-3,2-4.9v-3.3c0-1.8-0.7-3.6-2-4.9c-1.3-1.3-3-2-4.9-2h-15.2V269h19.1c1.8,0,3.6-0.7,4.9-2c1.3-1.3,2-3,2-4.9v-3.3
	c0-1.8-0.7-3.6-2-4.8C959.8,252.7,958.1,252,956.3,252z"/>
</svg>
